<svg xmlns="http://www.w3.org/2000/svg" id="그룹_196" width="222.417" height="30.7095" viewBox="0 0 296.556 40.946">
    <defs>
        <style>
            .cls-1{isolation:isolate}.cls-2{fill:#ff7057}
        </style>
    </defs>
    <g id="Sign" class="cls-1" transform="translate(212.47 3.473)">
        <g id="그룹_2" class="cls-1">
            <path id="패스_1" d="M790.632 383.9a16.493 16.493 0 0 1-6.514-1.118 9.331 9.331 0 0 1-3.924-2.923 6.811 6.811 0 0 1-1.412-3.845.785.785 0 0 1 .255-.569.828.828 0 0 1 .608-.255h4.945a1.519 1.519 0 0 1 .844.2 2.19 2.19 0 0 1 .53.51 4.606 4.606 0 0 0 .882 1.138 4.1 4.1 0 0 0 1.511.882 6.836 6.836 0 0 0 2.276.334 6.7 6.7 0 0 0 3.434-.706 2.165 2.165 0 0 0 1.157-1.923 1.837 1.837 0 0 0-.627-1.452 5.888 5.888 0 0 0-2.021-1 35.544 35.544 0 0 0-3.708-.922 22.724 22.724 0 0 1-5.082-1.628 7.771 7.771 0 0 1-3.2-2.629 7.72 7.72 0 0 1 .255-8.338 8.914 8.914 0 0 1 3.786-2.944 14.383 14.383 0 0 1 5.768-1.059 14.685 14.685 0 0 1 4.767.706 10.843 10.843 0 0 1 3.473 1.883 8.9 8.9 0 0 1 2.138 2.492 5.686 5.686 0 0 1 .766 2.57.861.861 0 0 1-.216.569.752.752 0 0 1-.609.255h-5.179a1.65 1.65 0 0 1-.746-.157 1.446 1.446 0 0 1-.549-.51 2.69 2.69 0 0 0-1.235-1.511 4.736 4.736 0 0 0-2.61-.647 5.017 5.017 0 0 0-2.688.608 2.053 2.053 0 0 0-.961 1.864 1.991 1.991 0 0 0 .53 1.373 4.247 4.247 0 0 0 1.766 1.02 30.42 30.42 0 0 0 3.394.9 25.519 25.519 0 0 1 5.768 1.668 7.389 7.389 0 0 1 3.238 2.59 7.87 7.87 0 0 1-.491 8.573 9.739 9.739 0 0 1-4.179 2.963 16.736 16.736 0 0 1-6.14 1.038z" class="cls-2" transform="translate(-778.782 -354.662)"/>
            <path id="패스_2" d="M826.819 359.437a.94.94 0 0 1-.981-.981v-3.531a.974.974 0 0 1 .274-.687.923.923 0 0 1 .707-.295h4.708a1.006 1.006 0 0 1 .981.982v3.531a.921.921 0 0 1-.294.706.974.974 0 0 1-.687.275zm.039 23.347a.92.92 0 0 1-.706-.294.973.973 0 0 1-.275-.687v-18.442a.942.942 0 0 1 .98-.982h4.63a.942.942 0 0 1 .981.982V381.8a.975.975 0 0 1-.275.687.924.924 0 0 1-.706.294z" class="cls-2" transform="translate(-798.685 -353.943)"/>
            <path id="패스_3" d="M854.8 397.313a13.7 13.7 0 0 1-5-.785 9.7 9.7 0 0 1-3.138-1.883 7.518 7.518 0 0 1-1.668-2.178 5.11 5.11 0 0 1-.55-1.707.84.84 0 0 1 .276-.725 1.052 1.052 0 0 1 .746-.294h4.983a.944.944 0 0 1 .628.2 1.433 1.433 0 0 1 .392.628 9.768 9.768 0 0 0 .549.883 2.481 2.481 0 0 0 .923.765 3.678 3.678 0 0 0 1.667.314 4.562 4.562 0 0 0 1.962-.373 2.424 2.424 0 0 0 1.177-1.216 5.433 5.433 0 0 0 .392-2.256v-2.629a6.67 6.67 0 0 1-2.315 1.589 8.615 8.615 0 0 1-3.414.608 9.792 9.792 0 0 1-3.531-.589 6.3 6.3 0 0 1-2.551-1.766 8.418 8.418 0 0 1-1.589-2.864 14.59 14.59 0 0 1-.686-3.885q-.04-1.019 0-2.079a15.082 15.082 0 0 1 .667-3.787 8.187 8.187 0 0 1 1.589-2.9 6.911 6.911 0 0 1 2.571-1.844 8.994 8.994 0 0 1 3.531-.647 7.645 7.645 0 0 1 3.629.8 7.964 7.964 0 0 1 2.491 2.021v-1.452a.976.976 0 0 1 .275-.687.919.919 0 0 1 .706-.295h4.512a.984.984 0 0 1 .726.295.945.945 0 0 1 .294.687v18.874a9.78 9.78 0 0 1-1.2 5.022 7.635 7.635 0 0 1-3.492 3.1 13.188 13.188 0 0 1-5.552 1.055zm-.274-14.165a3.48 3.48 0 0 0 2.04-.549 3.289 3.289 0 0 0 1.158-1.413 5.156 5.156 0 0 0 .412-1.844q.039-.432.039-1.216t-.039-1.177a5.243 5.243 0 0 0-.412-1.883 3.166 3.166 0 0 0-1.158-1.393 3.584 3.584 0 0 0-2.04-.53 3.468 3.468 0 0 0-2.061.549 3.03 3.03 0 0 0-1.1 1.491 7.813 7.813 0 0 0-.412 2.08q-.04.864 0 1.766a7.814 7.814 0 0 0 .412 2.08 3.03 3.03 0 0 0 1.1 1.491 3.462 3.462 0 0 0 2.059.548z" class="cls-2" transform="translate(-806.379 -359.84)"/>
            <path id="패스_4" d="M889.446 388.68a.923.923 0 0 1-.707-.294.973.973 0 0 1-.274-.687v-18.442a.941.941 0 0 1 .981-.981h4.512a1.029 1.029 0 0 1 .726.275.924.924 0 0 1 .294.706v1.491a7.779 7.779 0 0 1 2.629-2.04 8.583 8.583 0 0 1 3.885-.824 7.834 7.834 0 0 1 4.022 1.02 7.086 7.086 0 0 1 2.747 2.983 10.641 10.641 0 0 1 1 4.866V387.7a.974.974 0 0 1-.275.687.923.923 0 0 1-.706.294h-4.944a1.006 1.006 0 0 1-.981-.981v-10.713a4.166 4.166 0 0 0-.883-2.845 3.3 3.3 0 0 0-2.61-1 3.4 3.4 0 0 0-2.57 1 3.942 3.942 0 0 0-.962 2.845V387.7a1.007 1.007 0 0 1-.981.981z" class="cls-2" transform="translate(-825.175 -359.84)"/>
        </g>
    </g>
    <path id="패스_5" d="M680.676 386.008H576.81v-38.084h103.866zm-93.74-10.126h83.615V358.05h-83.615z" class="cls-2" transform="translate(-480.885 -347.924)"/>
    <g id="Hey_" class="cls-1" transform="translate(0 4.847)">
        <g id="그룹_3" class="cls-1">
            <path id="패스_6" d="M411.551 383.791a.941.941 0 0 1-.981-.981V357.3a.941.941 0 0 1 .981-.98h5.062a1.025 1.025 0 0 1 .726.275.922.922 0 0 1 .294.706v9.457h9.653V357.3a.941.941 0 0 1 .981-.98h5.062a.941.941 0 0 1 .981.98v25.51a.975.975 0 0 1-.275.687.923.923 0 0 1-.706.294h-5.062a.922.922 0 0 1-.706-.294.972.972 0 0 1-.275-.687v-9.77h-9.653v9.77a.941.941 0 0 1-.294.687.987.987 0 0 1-.726.294z" class="cls-2" transform="translate(-410.57 -356.324)"/>
            <path id="패스_7" d="M469.3 389.073a10.508 10.508 0 0 1-7.377-2.511q-2.747-2.51-2.865-7.455v-1.373a11.377 11.377 0 0 1 1.393-5.317 8.436 8.436 0 0 1 3.531-3.374 11.412 11.412 0 0 1 5.277-1.158 10.829 10.829 0 0 1 5.709 1.373 8.742 8.742 0 0 1 3.394 3.728 12.209 12.209 0 0 1 1.138 5.376v.942a.941.941 0 0 1-.981.981h-12.56v.275a6.169 6.169 0 0 0 .413 2.08 3.37 3.37 0 0 0 1.1 1.491 2.87 2.87 0 0 0 1.785.549 3.017 3.017 0 0 0 1.314-.255 3.439 3.439 0 0 0 .883-.589 6.819 6.819 0 0 0 .549-.568 1.945 1.945 0 0 1 .568-.53 1.777 1.777 0 0 1 .687-.1h4.865a.923.923 0 0 1 .648.235.713.713 0 0 1 .216.628 3.453 3.453 0 0 1-.667 1.608 8.1 8.1 0 0 1-1.825 1.865 9.946 9.946 0 0 1-3 1.511 13.561 13.561 0 0 1-4.195.588zm-3.341-12.673h6.632v-.078a5.917 5.917 0 0 0-.373-2.217 3.044 3.044 0 0 0-1.138-1.432 3.214 3.214 0 0 0-1.825-.51 3.049 3.049 0 0 0-1.766.51 3.2 3.2 0 0 0-1.138 1.432 5.64 5.64 0 0 0-.393 2.217z" class="cls-2" transform="translate(-431.077 -361.214)"/>
            <path id="패스_8" d="M502.023 396.423a.8.8 0 0 1-.824-.824 1.489 1.489 0 0 1 .02-.216.94.94 0 0 1 .1-.294l3.061-7.377-7.536-17.812a1.231 1.231 0 0 1-.118-.471 1.287 1.287 0 0 1 .314-.608.769.769 0 0 1 .589-.256h4.471a1.043 1.043 0 0 1 .765.256 1.6 1.6 0 0 1 .373.569l4.473 11.418 4.591-11.418a2.165 2.165 0 0 1 .412-.569 1.04 1.04 0 0 1 .765-.256h4.395a.833.833 0 0 1 .608.256.791.791 0 0 1 .255.569 1.532 1.532 0 0 1-.118.51l-11.1 25.7a1.5 1.5 0 0 1-.392.568 1.112 1.112 0 0 1-.785.256z" class="cls-2" transform="translate(-447.011 -361.501)"/>
        </g>
        <g id="그룹_4" class="cls-1" transform="translate(73.237)">
            <path id="패스_9" d="M538.3 383.791a.764.764 0 0 1-.628-.294.8.8 0 0 1-.157-.687l1.02-4.827a1.27 1.27 0 0 1 1.216-1.019h4.827a.765.765 0 0 1 .628.294.861.861 0 0 1 .157.725l-1.021 4.827a1.29 1.29 0 0 1-1.216.981zm2-8.672a.751.751 0 0 1-.648-.294.832.832 0 0 1-.137-.687l3.61-16.834a1.153 1.153 0 0 1 .411-.706 1.172 1.172 0 0 1 .766-.275h4.512a.788.788 0 0 1 .628.275.809.809 0 0 1 .157.706l-3.571 16.834a1.289 1.289 0 0 1-1.217.981z" class="cls-2" transform="translate(-537.49 -356.324)"/>
        </g>
    </g>
</svg>
