<svg xmlns="http://www.w3.org/2000/svg" width="106.126" height="14.653" viewBox="0 0 106.126 14.653">
    <defs>
        <style>
            .cls-1{isolation:isolate}.cls-2{fill:#ff593b}
        </style>
    </defs>
    <g id="그룹_6" transform="translate(-410.57 -347.924)">
        <g id="Sign" class="cls-1" transform="translate(486.604 349.167)">
            <g id="그룹_2" class="cls-1">
                <path id="패스_1" d="M783.023 365.754a5.9 5.9 0 0 1-2.331-.4 3.337 3.337 0 0 1-1.4-1.046 2.437 2.437 0 0 1-.506-1.376.281.281 0 0 1 .091-.2.3.3 0 0 1 .218-.091h1.77a.544.544 0 0 1 .3.07.784.784 0 0 1 .189.182 1.648 1.648 0 0 0 .316.407 1.465 1.465 0 0 0 .541.316 2.446 2.446 0 0 0 .814.12 2.4 2.4 0 0 0 1.229-.253.774.774 0 0 0 .414-.688.658.658 0 0 0-.224-.52 2.107 2.107 0 0 0-.723-.358 12.737 12.737 0 0 0-1.327-.33 8.128 8.128 0 0 1-1.819-.583 2.782 2.782 0 0 1-1.144-.941 2.762 2.762 0 0 1 .092-2.984 3.188 3.188 0 0 1 1.355-1.053 5.147 5.147 0 0 1 2.064-.379 5.255 5.255 0 0 1 1.706.253 3.88 3.88 0 0 1 1.243.674 3.183 3.183 0 0 1 .765.892 2.037 2.037 0 0 1 .274.92.308.308 0 0 1-.077.2.269.269 0 0 1-.218.091h-1.854a.591.591 0 0 1-.267-.056.519.519 0 0 1-.2-.183.962.962 0 0 0-.442-.541 1.694 1.694 0 0 0-.934-.232 1.8 1.8 0 0 0-.962.218.735.735 0 0 0-.344.667.712.712 0 0 0 .19.491 1.519 1.519 0 0 0 .632.365 10.885 10.885 0 0 0 1.215.323 9.138 9.138 0 0 1 2.064.6 2.645 2.645 0 0 1 1.159.927 2.816 2.816 0 0 1-.176 3.068 3.484 3.484 0 0 1-1.5 1.06 5.991 5.991 0 0 1-2.193.37z" class="cls-2" transform="translate(-778.782 -355.293)"/>
                <path id="패스_2" d="M826.189 355.909a.336.336 0 0 1-.351-.351v-1.264a.349.349 0 0 1 .1-.246.331.331 0 0 1 .253-.106h1.685a.36.36 0 0 1 .351.351v1.264a.329.329 0 0 1-.105.253.349.349 0 0 1-.246.1zm.014 8.355a.329.329 0 0 1-.253-.105.348.348 0 0 1-.1-.246v-6.6a.337.337 0 0 1 .351-.351h1.657a.337.337 0 0 1 .351.351v6.6a.349.349 0 0 1-.1.246.331.331 0 0 1-.253.105z" class="cls-2" transform="translate(-816.121 -353.943)"/>
                <path id="패스_3" d="M847.882 378.415a4.9 4.9 0 0 1-1.79-.281 3.472 3.472 0 0 1-1.123-.674 2.689 2.689 0 0 1-.6-.78 1.821 1.821 0 0 1-.2-.611.3.3 0 0 1 .1-.26.376.376 0 0 1 .267-.105h1.783a.338.338 0 0 1 .224.07.511.511 0 0 1 .14.225 3.515 3.515 0 0 0 .2.316.887.887 0 0 0 .33.274 1.317 1.317 0 0 0 .6.112 1.633 1.633 0 0 0 .7-.134.868.868 0 0 0 .421-.435 1.945 1.945 0 0 0 .14-.807v-.941a2.388 2.388 0 0 1-.828.569 3.083 3.083 0 0 1-1.222.218 3.5 3.5 0 0 1-1.264-.211 2.255 2.255 0 0 1-.913-.632 3.005 3.005 0 0 1-.569-1.025 5.209 5.209 0 0 1-.246-1.39q-.014-.365 0-.744a5.4 5.4 0 0 1 .239-1.355 2.926 2.926 0 0 1 .569-1.039 2.473 2.473 0 0 1 .92-.66 3.22 3.22 0 0 1 1.264-.232 2.737 2.737 0 0 1 1.3.288 2.848 2.848 0 0 1 .891.723v-.52a.349.349 0 0 1 .1-.246.329.329 0 0 1 .253-.106h1.615a.353.353 0 0 1 .26.106.338.338 0 0 1 .105.246v6.754a3.5 3.5 0 0 1-.428 1.8 2.732 2.732 0 0 1-1.25 1.109 4.72 4.72 0 0 1-1.988.378zm-.1-5.069a1.246 1.246 0 0 0 .73-.2 1.178 1.178 0 0 0 .414-.505 1.845 1.845 0 0 0 .147-.66q.014-.155.014-.435t-.014-.421a1.875 1.875 0 0 0-.147-.674 1.133 1.133 0 0 0-.414-.5 1.282 1.282 0 0 0-.73-.19 1.24 1.24 0 0 0-.737.2 1.083 1.083 0 0 0-.393.534 2.8 2.8 0 0 0-.147.744q-.014.309 0 .632a2.8 2.8 0 0 0 .147.744 1.083 1.083 0 0 0 .393.534 1.239 1.239 0 0 0 .739.197z" class="cls-2" transform="translate(-830.555 -365.005)"/>
                <path id="패스_4" d="M888.816 375.326a.33.33 0 0 1-.253-.105.348.348 0 0 1-.1-.246v-6.6a.337.337 0 0 1 .351-.351h1.615a.368.368 0 0 1 .26.1.33.33 0 0 1 .105.253v.534a2.783 2.783 0 0 1 .941-.73 3.07 3.07 0 0 1 1.39-.295 2.8 2.8 0 0 1 1.439.365 2.536 2.536 0 0 1 .983 1.067 3.807 3.807 0 0 1 .358 1.741v3.918a.349.349 0 0 1-.1.246.331.331 0 0 1-.253.105h-1.769a.36.36 0 0 1-.351-.351v-3.833a1.49 1.49 0 0 0-.316-1.018 1.18 1.18 0 0 0-.934-.358 1.217 1.217 0 0 0-.92.358 1.411 1.411 0 0 0-.344 1.018v3.833a.36.36 0 0 1-.351.351z" class="cls-2" transform="translate(-865.816 -365.005)"/>
            </g>
        </g>
        <g id="그룹_3" transform="translate(444.898 347.924)">
            <path id="사각형_182" fill="none" d="M0 0H31.388V7.847H0z" transform="translate(2.891 2.891)"/>
            <path id="패스_5" d="M576.81 347.924v13.629h37.17v-13.629zm34.279 10.738H579.7v-7.847h31.388z" class="cls-2" transform="translate(-576.81 -347.924)"/>
        </g>
        <g id="Hey_" class="cls-1" transform="translate(410.57 349.659)">
            <g id="그룹_4" class="cls-1">
                <path id="패스_6" d="M410.921 366.153a.337.337 0 0 1-.351-.351v-9.127a.337.337 0 0 1 .351-.351h1.811a.367.367 0 0 1 .26.1.33.33 0 0 1 .105.253v3.384h3.454v-3.384a.337.337 0 0 1 .351-.351h1.811a.337.337 0 0 1 .351.351v9.123a.349.349 0 0 1-.1.246.33.33 0 0 1-.253.105H416.9a.33.33 0 0 1-.253-.105.348.348 0 0 1-.1-.246v-3.5H413.1v3.5a.337.337 0 0 1-.105.246.353.353 0 0 1-.26.105z" class="cls-2" transform="translate(-410.57 -356.324)"/>
                <path id="패스_7" d="M462.719 375.467a3.761 3.761 0 0 1-2.64-.9 3.557 3.557 0 0 1-1.025-2.668v-.491a4.072 4.072 0 0 1 .5-1.9 3.02 3.02 0 0 1 1.264-1.208 4.084 4.084 0 0 1 1.889-.414 3.875 3.875 0 0 1 2.043.491 3.128 3.128 0 0 1 1.215 1.334 4.368 4.368 0 0 1 .407 1.924v.337a.337.337 0 0 1-.351.351h-4.494v.1a2.208 2.208 0 0 0 .148.744 1.206 1.206 0 0 0 .393.534 1.028 1.028 0 0 0 .639.2 1.08 1.08 0 0 0 .47-.091 1.229 1.229 0 0 0 .316-.211 2.455 2.455 0 0 0 .2-.2.7.7 0 0 1 .2-.19.637.637 0 0 1 .246-.035h1.741a.33.33 0 0 1 .232.084.255.255 0 0 1 .077.225 1.236 1.236 0 0 1-.239.576 2.9 2.9 0 0 1-.653.667 3.56 3.56 0 0 1-1.074.541 4.855 4.855 0 0 1-1.504.2zm-1.194-4.535h2.375v-.032a2.118 2.118 0 0 0-.133-.793 1.09 1.09 0 0 0-.407-.513 1.15 1.15 0 0 0-.653-.183 1.091 1.091 0 0 0-.632.183 1.146 1.146 0 0 0-.407.513 2.019 2.019 0 0 0-.141.793z" class="cls-2" transform="translate(-449.042 -365.497)"/>
                <path id="패스_8" d="M498.622 378.533a.288.288 0 0 1-.295-.295.533.533 0 0 1 .007-.077.337.337 0 0 1 .035-.105l1.1-2.64-2.7-6.375a.441.441 0 0 1-.042-.168.461.461 0 0 1 .112-.218.275.275 0 0 1 .211-.091h1.6a.373.373 0 0 1 .274.091.573.573 0 0 1 .133.2l1.6 4.086 1.643-4.086a.776.776 0 0 1 .147-.2.372.372 0 0 1 .274-.091h1.573a.3.3 0 0 1 .218.091.283.283 0 0 1 .091.2.55.55 0 0 1-.042.183l-3.974 9.2a.536.536 0 0 1-.14.2.4.4 0 0 1-.281.091z" class="cls-2" transform="translate(-478.935 -366.036)"/>
            </g>
            <g id="그룹_5" class="cls-1" transform="translate(26.209)">
                <path id="패스_9" d="M537.778 366.153a.273.273 0 0 1-.225-.105.286.286 0 0 1-.056-.246l.365-1.727a.455.455 0 0 1 .435-.365h1.727a.274.274 0 0 1 .225.105.308.308 0 0 1 .056.26l-.365 1.727a.461.461 0 0 1-.435.351zm.716-3.1a.269.269 0 0 1-.232-.105.3.3 0 0 1-.049-.246l1.292-6.024a.413.413 0 0 1 .147-.253.419.419 0 0 1 .274-.1h1.615a.282.282 0 0 1 .225.1.29.29 0 0 1 .056.253l-1.278 6.024a.461.461 0 0 1-.435.351z" class="cls-2" transform="translate(-537.49 -356.324)"/>
            </g>
        </g>
    </g>
</svg>
