<svg xmlns="http://www.w3.org/2000/svg" id="그룹_5" width="160" height="22.092" viewBox="0 0 160 22.092">
    <defs>
        <style>
            .cls-1{isolation:isolate}.cls-2{fill:#ff7057}
        </style>
    </defs>
    <g id="Sign" class="cls-1" transform="translate(114.633 1.874)">
        <g id="그룹_2" class="cls-1">
            <path id="패스_1" d="M785.175 370.886a8.9 8.9 0 0 1-3.514-.6 5.034 5.034 0 0 1-2.117-1.577 3.675 3.675 0 0 1-.762-2.075.424.424 0 0 1 .138-.307.447.447 0 0 1 .328-.138h2.668a.82.82 0 0 1 .455.106 1.182 1.182 0 0 1 .286.275 2.484 2.484 0 0 0 .476.614 2.212 2.212 0 0 0 .815.476 3.689 3.689 0 0 0 1.228.18 3.613 3.613 0 0 0 1.853-.381 1.168 1.168 0 0 0 .624-1.037.991.991 0 0 0-.338-.783 3.177 3.177 0 0 0-1.09-.54 19.174 19.174 0 0 0-2-.5 12.262 12.262 0 0 1-2.742-.879 4.192 4.192 0 0 1-1.725-1.418 4.165 4.165 0 0 1 .138-4.5 4.809 4.809 0 0 1 2.043-1.588 7.76 7.76 0 0 1 3.112-.571 7.923 7.923 0 0 1 2.572.381 5.851 5.851 0 0 1 1.874 1.016 4.8 4.8 0 0 1 1.154 1.344 3.068 3.068 0 0 1 .413 1.387.465.465 0 0 1-.116.307.406.406 0 0 1-.328.138h-2.794a.89.89 0 0 1-.4-.085.78.78 0 0 1-.3-.275 1.451 1.451 0 0 0-.666-.815 2.555 2.555 0 0 0-1.408-.349 2.707 2.707 0 0 0-1.45.328 1.108 1.108 0 0 0-.519 1.006 1.074 1.074 0 0 0 .286.741 2.291 2.291 0 0 0 .953.55 16.4 16.4 0 0 0 1.831.487 13.768 13.768 0 0 1 3.112.9 3.986 3.986 0 0 1 1.747 1.4 4.246 4.246 0 0 1-.265 4.626 5.254 5.254 0 0 1-2.254 1.6 9.03 9.03 0 0 1-3.318.556z" class="cls-2" transform="translate(-778.782 -355.114)"/>
            <path id="패스_2" d="M826.367 356.907a.507.507 0 0 1-.529-.529v-1.905a.526.526 0 0 1 .148-.37.5.5 0 0 1 .381-.159h2.54a.543.543 0 0 1 .529.53v1.905a.5.5 0 0 1-.159.381.526.526 0 0 1-.371.148zm.021 12.6a.5.5 0 0 1-.381-.159.525.525 0 0 1-.148-.37v-9.95a.508.508 0 0 1 .529-.53h2.5a.508.508 0 0 1 .529.53v9.95a.526.526 0 0 1-.148.37.5.5 0 0 1-.381.159z" class="cls-2" transform="translate(-811.188 -353.943)"/>
            <path id="패스_3" d="M849.838 383.762a7.39 7.39 0 0 1-2.7-.424 5.234 5.234 0 0 1-1.693-1.016 4.054 4.054 0 0 1-.9-1.175 2.754 2.754 0 0 1-.3-.921.453.453 0 0 1 .149-.391.567.567 0 0 1 .4-.159h2.689a.509.509 0 0 1 .339.106.773.773 0 0 1 .212.339 5.255 5.255 0 0 0 .3.476 1.339 1.339 0 0 0 .5.413 1.984 1.984 0 0 0 .9.169 2.461 2.461 0 0 0 1.059-.2 1.308 1.308 0 0 0 .635-.656 2.931 2.931 0 0 0 .212-1.217v-1.418a3.6 3.6 0 0 1-1.249.857 4.648 4.648 0 0 1-1.842.328 5.283 5.283 0 0 1-1.905-.318 3.4 3.4 0 0 1-1.376-.953 4.541 4.541 0 0 1-.857-1.545 7.87 7.87 0 0 1-.37-2.1q-.022-.55 0-1.122a8.136 8.136 0 0 1 .36-2.043 4.417 4.417 0 0 1 .857-1.566 3.729 3.729 0 0 1 1.387-.995 4.853 4.853 0 0 1 1.905-.349 4.125 4.125 0 0 1 1.958.434 4.3 4.3 0 0 1 1.344 1.091v-.783a.526.526 0 0 1 .148-.37.5.5 0 0 1 .381-.159h2.435a.531.531 0 0 1 .392.159.51.51 0 0 1 .159.37v10.183a5.277 5.277 0 0 1-.646 2.71 4.119 4.119 0 0 1-1.884 1.672 7.115 7.115 0 0 1-2.999.573zm-.148-7.642a1.877 1.877 0 0 0 1.1-.3 1.774 1.774 0 0 0 .625-.762 2.78 2.78 0 0 0 .222-.995q.021-.233.021-.656t-.021-.635a2.827 2.827 0 0 0-.222-1.016 1.708 1.708 0 0 0-.625-.752 1.933 1.933 0 0 0-1.1-.286 1.871 1.871 0 0 0-1.112.3 1.635 1.635 0 0 0-.593.8 4.217 4.217 0 0 0-.222 1.122q-.022.466 0 .953a4.217 4.217 0 0 0 .222 1.122 1.634 1.634 0 0 0 .593.8 1.868 1.868 0 0 0 1.113.304z" class="cls-2" transform="translate(-823.715 -363.544)"/>
            <path id="패스_4" d="M888.994 379.1a.5.5 0 0 1-.381-.159.525.525 0 0 1-.148-.37v-9.95a.508.508 0 0 1 .529-.53h2.434a.555.555 0 0 1 .392.148.5.5 0 0 1 .159.381v.8a4.2 4.2 0 0 1 1.418-1.1 4.63 4.63 0 0 1 2.1-.445 4.226 4.226 0 0 1 2.17.55 3.823 3.823 0 0 1 1.482 1.609 5.741 5.741 0 0 1 .54 2.625v5.906a.526.526 0 0 1-.148.37.5.5 0 0 1-.381.159h-2.667a.543.543 0 0 1-.529-.529V372.8a2.248 2.248 0 0 0-.476-1.535 1.78 1.78 0 0 0-1.408-.539 1.834 1.834 0 0 0-1.387.539 2.127 2.127 0 0 0-.519 1.535v5.779a.543.543 0 0 1-.529.529z" class="cls-2" transform="translate(-854.318 -363.544)"/>
        </g>
    </g>
    <path id="패스_5" d="M632.848 368.471H576.81v-20.547h56.039zm-50.575-5.463h45.112v-9.621h-45.112z" class="cls-2" transform="translate(-525.056 -347.924)"/>
    <g id="Hey_" class="cls-1" transform="translate(0 2.615)">
        <g id="그룹_3" class="cls-1">
            <path id="패스_6" d="M411.1 371.143a.508.508 0 0 1-.529-.529v-13.761a.508.508 0 0 1 .529-.529h2.731a.553.553 0 0 1 .392.148.5.5 0 0 1 .159.381v5.1h5.208v-5.1a.508.508 0 0 1 .529-.529h2.731a.508.508 0 0 1 .529.529v13.761a.526.526 0 0 1-.148.37.5.5 0 0 1-.381.159h-2.731a.5.5 0 0 1-.381-.159.525.525 0 0 1-.148-.37v-5.271h-5.208v5.271a.507.507 0 0 1-.159.37.532.532 0 0 1-.392.159z" class="cls-2" transform="translate(-410.57 -356.324)"/>
            <path id="패스_7" d="M464.579 379.316a5.67 5.67 0 0 1-3.98-1.355 5.363 5.363 0 0 1-1.545-4.022v-.739a6.139 6.139 0 0 1 .752-2.869 4.552 4.552 0 0 1 1.905-1.821 6.157 6.157 0 0 1 2.847-.625 5.843 5.843 0 0 1 3.08.741 4.717 4.717 0 0 1 1.831 2.011 6.587 6.587 0 0 1 .614 2.9v.508a.508.508 0 0 1-.529.529h-6.774v.148a3.328 3.328 0 0 0 .223 1.122 1.818 1.818 0 0 0 .593.8 1.548 1.548 0 0 0 .963.3 1.628 1.628 0 0 0 .709-.138 1.856 1.856 0 0 0 .476-.318 3.686 3.686 0 0 0 .3-.307 1.049 1.049 0 0 1 .307-.286.959.959 0 0 1 .371-.053h2.625a.5.5 0 0 1 .349.127.385.385 0 0 1 .116.339 1.863 1.863 0 0 1-.36.868 4.373 4.373 0 0 1-.984 1.006 5.366 5.366 0 0 1-1.619.815 7.318 7.318 0 0 1-2.27.319zm-1.8-6.838h3.578v-.042a3.193 3.193 0 0 0-.2-1.2 1.642 1.642 0 0 0-.614-.773 1.734 1.734 0 0 0-.984-.275 1.645 1.645 0 0 0-.953.275 1.728 1.728 0 0 0-.614.773 3.043 3.043 0 0 0-.212 1.2z" class="cls-2" transform="translate(-443.96 -364.285)"/>
            <path id="패스_8" d="M499.584 383.594a.434.434 0 0 1-.445-.445.8.8 0 0 1 .011-.116.507.507 0 0 1 .053-.159l1.651-3.98-4.065-9.611a.664.664 0 0 1-.064-.254.7.7 0 0 1 .169-.328.415.415 0 0 1 .318-.138h2.413a.563.563 0 0 1 .413.138.864.864 0 0 1 .2.307l2.413 6.16 2.477-6.16a1.169 1.169 0 0 1 .222-.307.561.561 0 0 1 .413-.138h2.371a.449.449 0 0 1 .328.138.426.426 0 0 1 .138.307.826.826 0 0 1-.064.275l-5.991 13.866a.808.808 0 0 1-.212.307.6.6 0 0 1-.423.138z" class="cls-2" transform="translate(-469.904 -364.753)"/>
        </g>
        <g id="그룹_4" class="cls-1" transform="translate(39.513)">
            <path id="패스_9" d="M537.925 371.143a.412.412 0 0 1-.339-.159.431.431 0 0 1-.085-.37l.55-2.6a.685.685 0 0 1 .656-.55h2.6a.413.413 0 0 1 .339.159.465.465 0 0 1 .085.391l-.551 2.6a.7.7 0 0 1-.656.529zm1.08-4.679a.405.405 0 0 1-.35-.159.449.449 0 0 1-.074-.371l1.948-9.082a.622.622 0 0 1 .222-.381.632.632 0 0 1 .413-.148h2.436a.425.425 0 0 1 .339.148.437.437 0 0 1 .085.381l-1.927 9.082a.7.7 0 0 1-.656.529z" class="cls-2" transform="translate(-537.49 -356.324)"/>
        </g>
    </g>
</svg>
